<svg width="161" height="27" viewBox="0 0 161 27" fill="none" xmlns="http://www.w3.org/2000/svg">
<path d="M21.9784 22.0869C22.0968 22.1575 22.1364 22.3067 22.0574 22.4246C20.7701 24.3407 18.1798 24.9611 16.1502 23.791L13.165 22.079C12.8096 21.8748 12.4068 21.7727 12.004 21.7727C11.6013 21.7727 11.1985 21.8748 10.8432 22.079L7.85796 23.791C5.82044 24.9611 3.23802 24.3407 1.95076 22.4246C1.87178 22.3146 1.91127 22.1575 2.02972 22.0869L8.64772 18.2858C10.7168 17.0922 13.2913 17.0922 15.3684 18.2858L21.9784 22.0869Z" fill="#27AD5A"/>
<path d="M23.5418 19.8643C23.4787 19.9822 23.3286 20.0293 23.2102 19.9665L16.5922 16.1654C14.5231 14.9718 13.2358 12.7571 13.2358 10.3776V2.7756C13.2358 2.6421 13.3543 2.53214 13.4886 2.54C15.8025 2.68922 17.6346 4.60542 17.6346 6.9457V10.3776C17.6346 11.2022 18.077 11.9639 18.7956 12.3723L21.7808 14.0843C23.8183 15.2623 24.5686 17.799 23.5418 19.8643Z" fill="#292929"/>
<path d="M10.5113 2.54C10.6455 2.53214 10.764 2.6421 10.764 2.7756V10.3776C10.764 12.7571 9.4767 14.9718 7.4076 16.1654L0.789631 19.9665C0.671171 20.0371 0.521122 19.99 0.457943 19.8643C-0.56871 17.799 0.181537 15.2623 2.21905 14.0922L5.20424 12.3802C5.9229 11.9718 6.36515 11.2022 6.36515 10.3854V6.9457C6.36515 4.60542 8.20526 2.68922 10.5113 2.54Z" fill="#292929"/>
<path d="M35.5 9.12L35.96 6.2H47.3L46.84 9.12H42.74L40.86 21H37.74L39.62 9.12H35.5ZM50.048 21H46.928L49.268 6.2H52.388L51.448 12.1H57.128L58.068 6.2H61.188L58.848 21H55.728L56.688 15H51.008L50.048 21ZM65.0675 21H61.9475L64.2875 6.2H69.7875C71.2542 6.2 72.4208 6.58667 73.2875 7.36C74.1542 8.13333 74.5875 9.17333 74.5875 10.48C74.5875 11.4667 74.3075 12.36 73.7475 13.16C73.2008 13.96 72.4075 14.6067 71.3675 15.1L73.1875 21H69.9675L68.3875 15.78H65.8875L65.0675 21ZM66.9675 9L66.3275 13.02H68.7475C69.5475 13.02 70.1742 12.82 70.6275 12.42C71.0942 12.0067 71.3275 11.4467 71.3275 10.74C71.3275 10.1933 71.1475 9.76667 70.7875 9.46C70.4275 9.15333 69.9275 9 69.2875 9H66.9675ZM84.6631 21H75.4631L77.8031 6.2H87.0031L86.5431 9.12H80.4631L79.9831 12.16H85.3631L84.9231 14.92H79.5431L79.0431 18.08H85.1231L84.6631 21ZM89.3581 21H85.9581L93.4781 6.2H96.5381L99.3581 21H96.1581L95.6381 17.84H90.9181L89.3581 21ZM93.8581 11.82L92.2381 15.2H95.1781L94.6181 11.82C94.5115 11.18 94.4581 10.7133 94.4581 10.42C94.2981 10.8733 94.0981 11.34 93.8581 11.82ZM106.748 21H101.108L103.448 6.2H108.708C110.534 6.2 112.048 6.84 113.248 8.12C114.448 9.4 115.048 11.0133 115.048 12.96C115.048 15.3333 114.274 17.2667 112.728 18.76C111.194 20.2533 109.201 21 106.748 21ZM108.128 9.12H106.108L104.688 18.08H106.908C108.374 18.08 109.541 17.62 110.408 16.7C111.274 15.7667 111.708 14.52 111.708 12.96C111.708 11.8 111.381 10.8733 110.728 10.18C110.074 9.47333 109.208 9.12 108.128 9.12Z" fill="#27AD5A"/>
<path d="M118.445 21L116.445 6.2H119.545L120.405 12.82C120.579 14.14 120.665 15.2 120.665 16C120.959 15.0667 121.365 14.0067 121.885 12.82L124.745 6.2H128.325L129.045 12.82C129.139 13.62 129.205 14.68 129.245 16C129.552 15.1067 129.972 14.06 130.505 12.86L133.525 6.2H136.765L130.005 21H126.985L125.905 10.78L121.565 21H118.445ZM136.663 21H133.263L140.783 6.2H143.843L146.663 21H143.463L142.943 17.84H138.223L136.663 21ZM141.163 11.82L139.543 15.2H142.483L141.923 11.82C141.816 11.18 141.763 10.7133 141.763 10.42C141.603 10.8733 141.403 11.34 141.163 11.82ZM151.035 15.36L147.615 6.2H150.915L152.635 11.1C152.795 11.5267 152.909 11.92 152.975 12.28C153.135 11.9067 153.362 11.5067 153.655 11.08L156.935 6.2H160.495L154.155 15.36L153.255 21H150.135L151.035 15.36Z" fill="#272727"/>
</svg>
