<svg width="24" height="25" viewBox="0 0 24 25" fill="none" xmlns="http://www.w3.org/2000/svg">
<path d="M21.9784 21.0869C22.0968 21.1575 22.1364 21.3067 22.0574 21.4246C20.7701 23.3407 18.1798 23.9611 16.1502 22.791L13.165 21.079C12.8096 20.8748 12.4068 20.7727 12.004 20.7727C11.6013 20.7727 11.1985 20.8748 10.8432 21.079L7.85796 22.791C5.82044 23.9611 3.23802 23.3407 1.95076 21.4246C1.87178 21.3146 1.91127 21.1575 2.02972 21.0869L8.64772 17.2858C10.7168 16.0922 13.2913 16.0922 15.3684 17.2858L21.9784 21.0869Z" fill="#27AD5A"/>
<path d="M23.5418 18.8643C23.4787 18.9822 23.3286 19.0293 23.2102 18.9665L16.5922 15.1654C14.5231 13.9718 13.2358 11.7571 13.2358 9.3776V1.7756C13.2358 1.6421 13.3543 1.53214 13.4886 1.54C15.8025 1.68922 17.6346 3.60542 17.6346 5.9457V9.3776C17.6346 10.2022 18.077 10.9639 18.7956 11.3723L21.7808 13.0843C23.8183 14.2623 24.5686 16.799 23.5418 18.8643Z" fill="#292929"/>
<path d="M10.5113 1.54C10.6455 1.53214 10.764 1.6421 10.764 1.7756V9.3776C10.764 11.7571 9.4767 13.9718 7.4076 15.1654L0.789631 18.9665C0.671171 19.0371 0.521122 18.99 0.457943 18.8643C-0.56871 16.799 0.181537 14.2623 2.21905 13.0922L5.20424 11.3802C5.9229 10.9718 6.36515 10.2022 6.36515 9.38544V5.9457C6.36515 3.60542 8.20526 1.68922 10.5113 1.54Z" fill="#292929"/>
</svg>
