<svg width="137" height="27" viewBox="0 0 137 27" fill="none" xmlns="http://www.w3.org/2000/svg">
<path d="M21.9782 22.0869C22.0967 22.1576 22.1362 22.3068 22.0573 22.4246C20.77 24.3408 18.1797 24.9612 16.1501 23.7911L13.1649 22.079C12.8094 21.8748 12.4067 21.7728 12.0039 21.7728C11.6012 21.7728 11.1984 21.8748 10.843 22.079L7.85784 23.7911C5.82032 24.9612 3.2379 24.3408 1.95063 22.4246C1.87166 22.3146 1.91115 22.1576 2.0296 22.0869L8.64759 18.2859C10.7166 17.0922 13.2912 17.0922 15.3682 18.2859L21.9782 22.0869Z" fill="#647DED"/>
<path d="M23.542 19.8643C23.4788 19.9821 23.3288 20.0292 23.2103 19.9664L16.5924 16.1654C14.5232 14.9717 13.236 12.7571 13.236 10.3775V2.77555C13.236 2.64204 13.3544 2.53209 13.4887 2.53995C15.8026 2.68916 17.6348 4.60536 17.6348 6.94564V10.3775C17.6348 11.2021 18.0771 11.9639 18.7957 12.3723L21.7809 14.0843C23.8184 15.2623 24.5687 17.7989 23.542 19.8643Z" fill="#FFFFF0"/>
<path d="M10.5114 2.53995C10.6456 2.53209 10.7641 2.64204 10.7641 2.77555V10.3775C10.7641 12.7571 9.47682 14.9717 7.40772 16.1654L0.789753 19.9664C0.671293 20.0371 0.521244 19.9899 0.458065 19.8643C-0.568588 17.7989 0.181659 15.2623 2.21917 14.0921L5.20436 12.3801C5.92302 11.9718 6.36527 11.2021 6.36527 10.3854V6.94564C6.36527 4.60536 8.20538 2.68916 10.5114 2.53995Z" fill="#FFFFF0"/>
<path d="M33.5 9.12L33.96 6.2H45.3L44.84 9.12H40.74L38.86 21H35.74L37.62 9.12H33.5ZM47.488 21H44.528L46.908 5.92H49.908L48.928 12.08C49.3413 11.5867 49.768 11.2333 50.208 11.02C50.6613 10.7933 51.188 10.68 51.788 10.68C52.8946 10.68 53.7813 11.0867 54.448 11.9C55.1146 12.7133 55.3546 13.6933 55.168 14.84L54.188 21H51.208L52.068 15.56C52.1746 14.8933 52.088 14.36 51.808 13.96C51.528 13.56 51.0946 13.36 50.508 13.36C49.9213 13.36 49.4413 13.5467 49.068 13.92C48.6946 14.2933 48.4546 14.8333 48.348 15.54L47.488 21ZM64.6634 10.98L64.2234 13.78H63.2634C61.4101 13.78 60.3434 14.7067 60.0634 16.56L59.3634 21H56.3834L57.9634 11H60.7634L60.7034 12.46C61.3168 11.38 62.2568 10.84 63.5234 10.84C63.9501 10.84 64.3301 10.8867 64.6634 10.98ZM69.2127 21.24C67.7327 21.24 66.5793 20.8467 65.7527 20.06C64.9393 19.2733 64.5327 18.1733 64.5327 16.76C64.5327 15.04 65.0727 13.6067 66.1527 12.46C67.246 11.3 68.606 10.72 70.2327 10.72C71.7927 10.72 72.966 11.2 73.7527 12.16C74.5393 13.1067 74.806 14.38 74.5527 15.98L74.4327 16.76L67.3727 16.8C67.4527 18.1333 68.1193 18.8 69.3727 18.8C70.3327 18.8 71.0127 18.4133 71.4127 17.64H74.3327C73.9993 18.7067 73.3593 19.5733 72.4127 20.24C71.466 20.9067 70.3993 21.24 69.2127 21.24ZM70.0527 13.14C69.5327 13.14 69.0593 13.3067 68.6327 13.64C68.2193 13.96 67.8993 14.3933 67.6727 14.94H71.7527C71.846 14.3933 71.7393 13.96 71.4327 13.64C71.126 13.3067 70.666 13.14 70.0527 13.14ZM78.5459 21.26C77.6393 21.26 76.8993 21.0067 76.3259 20.5C75.7659 19.98 75.4859 19.3067 75.4859 18.48C75.4859 17.44 75.8393 16.62 76.5459 16.02C77.2526 15.4067 78.2726 15.0467 79.6059 14.94L82.4059 14.7L82.4259 14.52C82.4793 14.0267 82.3659 13.6467 82.0859 13.38C81.8193 13.1133 81.4059 12.98 80.8459 12.98C79.6993 12.98 79.0593 13.46 78.9259 14.42H76.3259C76.5126 13.2333 77.0193 12.32 77.8459 11.68C78.6859 11.0267 79.7926 10.7 81.1659 10.7C82.6326 10.7 83.7326 11.1 84.4659 11.9C85.2126 12.7 85.4726 13.78 85.2459 15.14L84.3059 21H81.6859L81.7059 19.66C81.4793 20.14 81.0726 20.5267 80.4859 20.82C79.8993 21.1133 79.2526 21.26 78.5459 21.26ZM79.7459 19.04C80.3726 19.04 80.8926 18.88 81.3059 18.56C81.7193 18.2267 81.9659 17.78 82.0459 17.22L82.1259 16.68L80.5259 16.82C79.8059 16.8733 79.2859 17.0067 78.9659 17.22C78.6593 17.4333 78.5059 17.7333 78.5059 18.12C78.5059 18.7333 78.9193 19.04 79.7459 19.04ZM90.8406 21.24C89.654 21.24 88.674 20.8133 87.9006 19.96C87.1273 19.0933 86.7406 17.9867 86.7406 16.64C86.7406 14.8933 87.234 13.4733 88.2206 12.38C89.2073 11.2733 90.454 10.72 91.9606 10.72C92.6406 10.72 93.2806 10.8667 93.8806 11.16C94.494 11.4533 94.934 11.8267 95.2006 12.28L96.1606 5.92H99.1406L96.7606 21H93.9606L93.9806 19.74C93.2206 20.74 92.174 21.24 90.8406 21.24ZM91.8006 18.62C92.574 18.62 93.234 18.32 93.7806 17.72C94.3273 17.12 94.6006 16.3867 94.6006 15.52C94.6006 14.8667 94.414 14.34 94.0406 13.94C93.6673 13.54 93.1606 13.34 92.5206 13.34C91.7473 13.34 91.0873 13.64 90.5406 14.24C89.994 14.84 89.7206 15.5733 89.7206 16.44C89.7206 17.0933 89.9073 17.62 90.2806 18.02C90.654 18.42 91.1606 18.62 91.8006 18.62ZM101.259 21L99.6792 11H102.659L103.059 14.4C103.166 15.2533 103.239 16.1867 103.279 17.2C103.586 16.3733 103.966 15.44 104.419 14.4L105.919 11H108.979L109.379 14.4C109.473 15.3467 109.546 16.28 109.599 17.2C110.133 15.8533 110.513 14.92 110.739 14.4L112.239 11H115.519L110.519 21H107.799L107.299 17.68C107.099 16.24 106.979 15.1067 106.939 14.28C106.646 15.04 106.179 16.1933 105.539 17.74L104.199 21H101.259ZM117.843 21.26C116.936 21.26 116.196 21.0067 115.623 20.5C115.063 19.98 114.783 19.3067 114.783 18.48C114.783 17.44 115.136 16.62 115.843 16.02C116.549 15.4067 117.569 15.0467 118.903 14.94L121.703 14.7L121.723 14.52C121.776 14.0267 121.663 13.6467 121.383 13.38C121.116 13.1133 120.703 12.98 120.143 12.98C118.996 12.98 118.356 13.46 118.223 14.42H115.623C115.809 13.2333 116.316 12.32 117.143 11.68C117.983 11.0267 119.089 10.7 120.463 10.7C121.929 10.7 123.029 11.1 123.763 11.9C124.509 12.7 124.769 13.78 124.543 15.14L123.603 21H120.983L121.003 19.66C120.776 20.14 120.369 20.5267 119.783 20.82C119.196 21.1133 118.549 21.26 117.843 21.26ZM119.043 19.04C119.669 19.04 120.189 18.88 120.603 18.56C121.016 18.2267 121.263 17.78 121.343 17.22L121.423 16.68L119.823 16.82C119.103 16.8733 118.583 17.0067 118.263 17.22C117.956 17.4333 117.803 17.7333 117.803 18.12C117.803 18.7333 118.216 19.04 119.043 19.04ZM123.73 25.78L124.13 23.26H125.77C126.556 23.26 127.19 22.7933 127.67 21.86L128.07 21.12L125.81 11H128.81L129.95 17.52L133.37 11H136.63L129.75 23.18C129.216 24.1133 128.63 24.82 127.99 25.3C127.363 25.7933 126.59 26.04 125.67 26.04C124.976 26.04 124.33 25.9533 123.73 25.78Z" fill="white"/>
</svg>
