<svg width="24" height="24" viewBox="0 0 50 50" fill="none" xmlns="http://www.w3.org/2000/svg">
<path d="M45.788 42.8893C46.0349 43.0365 46.1172 43.3473 45.9527 43.5928C43.2709 47.5848 37.8744 48.8773 33.646 46.4396L27.4269 42.8728C26.6864 42.4475 25.8474 42.2348 25.0082 42.2348C24.1692 42.2348 23.33 42.4475 22.5897 42.8728L16.3706 46.4396C12.1257 48.8773 6.74567 47.5848 4.06387 43.5928C3.89934 43.3636 3.98161 43.0365 4.22839 42.8893L18.0159 34.9705C22.3264 32.4836 27.69 32.4836 32.0172 34.9705L45.788 42.8893Z" fill="#647DED"/>
<path d="M49.0458 38.259C48.9143 38.5045 48.6016 38.6027 48.3548 38.4718L34.5675 30.553C30.2568 28.0662 27.575 23.4523 27.575 18.495V2.65749C27.575 2.37936 27.8218 2.15029 28.1015 2.16666C32.9221 2.47753 36.7391 6.46961 36.7391 11.3452V18.495C36.7391 20.2128 37.6606 21.7998 39.1578 22.6507L45.3769 26.2173C49.6218 28.6715 51.1848 33.9562 49.0458 38.259Z" fill="#FFFFF0"/>
<path d="M21.8987 2.16666C22.1783 2.15029 22.4252 2.37936 22.4252 2.65749V18.495C22.4252 23.4523 19.7433 28.0662 15.4327 30.553L1.64527 38.4718C1.39848 38.619 1.08587 38.5208 0.954252 38.259C-1.18461 33.9562 0.378405 28.6715 4.62322 26.2337L10.8424 22.667C12.3396 21.8163 13.2609 20.2128 13.2609 18.5113V11.3452C13.2609 6.46961 17.0945 2.47753 21.8987 2.16666Z" fill="#FFFFF0"/>
</svg>
