<svg width="24" height="24" viewBox="0 0 24 24" fill="none" xmlns="http://www.w3.org/2000/svg">
<path d="M21.9782 20.5869C22.0967 20.6576 22.1362 20.8068 22.0573 20.9246C20.77 22.8408 18.1797 23.4612 16.1501 22.2911L13.1649 20.579C12.8094 20.3748 12.4067 20.2728 12.0039 20.2728C11.6012 20.2728 11.1984 20.3748 10.843 20.579L7.85784 22.2911C5.82032 23.4612 3.2379 22.8408 1.95063 20.9246C1.87166 20.8146 1.91115 20.6576 2.0296 20.5869L8.64759 16.7859C10.7166 15.5922 13.2912 15.5922 15.3682 16.7859L21.9782 20.5869Z" fill="#647DED"/>
<path d="M23.542 18.3643C23.4788 18.4821 23.3288 18.5292 23.2103 18.4664L16.5924 14.6654C14.5232 13.4717 13.236 11.2571 13.236 8.87755V1.27555C13.236 1.14204 13.3544 1.03209 13.4887 1.03995C15.8026 1.18916 17.6348 3.10536 17.6348 5.44564V8.87755C17.6348 9.70211 18.0771 10.4639 18.7957 10.8723L21.7809 12.5843C23.8184 13.7623 24.5687 16.2989 23.542 18.3643Z" fill="#647DED"/>
<path d="M10.5114 1.03995C10.6456 1.03209 10.7641 1.14204 10.7641 1.27555V8.87755C10.7641 11.2571 9.47682 13.4717 7.40772 14.6654L0.789753 18.4664C0.671293 18.5371 0.521244 18.4899 0.458065 18.3643C-0.568588 16.2989 0.181659 13.7623 2.21917 12.5921L5.20436 10.8801C5.92302 10.4718 6.36527 9.70211 6.36527 8.88539V5.44564C6.36527 3.10536 8.20538 1.18916 10.5114 1.03995Z" fill="#647DED"/>
</svg>
